PathFileType	4	(X/Y/Z)	/Users/niels/Desktop/University/Third Semester/Perception and Action/Exam/Gymnastics Motion Tracking/Code for Gym Tracking/Scripts/Analyzed Data/Start Salto/st_salto_bad_id11_2_Sports2D/st_salto_bad_id11_2_Sports2D_px_person00.trc
DataRate	CameraRate	NumFrames	NumMarkers	Units	OrigDataRate	OrigDataStartFrame	OrigNumFrames
29.83695652173913	29.83695652173913	7	22	m	29.83695652173913	161	184
Frame#	Time	Hip			RHip			RKnee			RAnkle			RBigToe			RSmallToe			RHeel			LHip			LKnee			LAnkle			LBigToe			LSmallToe			LHeel			Neck			Head			Nose			RShoulder			RElbow			RWrist			LShoulder			LElbow			LWrist		
		X1	Y1	Z1	X2	Y2	Z2	X3	Y3	Z3	X4	Y4	Z4	X5	Y5	Z5	X6	Y6	Z6	X7	Y7	Z7	X8	Y8	Z8	X9	Y9	Z9	X10	Y10	Z10	X11	Y11	Z11	X12	Y12	Z12	X13	Y13	Z13	X14	Y14	Z14	X15	Y15	Z15	X16	Y16	Z16	X17	Y17	Z17	X18	Y18	Z18	X19	Y19	Z19	X20	Y20	Z20	X21	Y21	Z21	X22	Y22	Z22
161	5.3959927140255015	1.2106084181902044	-0.54482482287497	0.0	1.2262689491322127	-0.5476071096890798	0.0	1.263503495693618	-0.43996073279983927	0.0	1.3819223078921343	-0.5089021590442955	0.0	1.431647631347084	-0.47310123150397637	0.0	1.4354271909317882	-0.4879291745212353	0.0	1.385722897698284	-0.5282019815306299	0.0	1.1815628273248047	-0.5342620230302142	0.0	1.155213114962224	-0.4437686103703385	0.0	1.2201688956333014	-0.34241195390102724	0.0	1.2021305339319521	-0.2810714136010832	0.0	1.1964625345608013	-0.2835826041525185	0.0	1.2341864374982734	-0.3481403505459139	0.0	1.06702279151782	-0.5312566278365651	0.0	1.0076788698141668	-0.4777941420807641	0.0	1.0592162541253174	-0.47957976233359745	0.0	1.0776933139437277	-0.545311753812068	0.0	1.1862614930036364	-0.5167129965534963	0.0	1.202738915732532	-0.4611919809848434	0.0	1.0735496234151647	-0.5331132045696568	0.0	1.1409440256178025	-0.4973075645413202	0.0	1.1665537745404069	-0.4600304969142275	0.0
162	5.429508196721312	1.216165794986019	-0.5476651677296203	0.0	1.2326641645846985	-0.5525330164192584	0.0	1.2837213674256713	-0.45114558111475744	0.0	1.396727440917778	-0.5309890507299855	0.0	1.4500097676274204	-0.5023355449352912	0.0	1.4518110499408976	-0.5169222466176373	0.0	1.3978761983342534	-0.5501084885203597	0.0	1.1905478135893488	-0.5364642044685688	0.0	1.1663661399590208	-0.44622667288039164	0.0	1.240664968828519	-0.3477367915623628	0.0	1.2302980177190848	-0.2852829473152631	0.0	1.2234933356242188	-0.2879913181536869	0.0	1.2554259354100152	-0.3535605989332857	0.0	1.0731225728933436	-0.5271034597105297	0.0	1.018733334997751	-0.47007790970524094	0.0	1.0699697541132516	-0.4753666312577113	0.0	1.0824798386316805	-0.5420987270746009	0.0	1.194224684961867	-0.5189951462611135	0.0	1.2269852399626502	-0.4662972392958695	0.0	1.0816690788394123	-0.5277996480903873	0.0	1.1530262293859042	-0.49967356523369105	0.0	1.185653591799444	-0.4642012153876873	0.0
163	5.463023679417122	1.2227892569969403	-0.5520109224613372	0.0	1.240021383489364	-0.5588233109421556	0.0	1.3058105149168566	-0.4651918610656482	0.0	1.411285580350168	-0.555698483122021	0.0	1.4672911808593567	-0.5344222492192674	0.0	1.4668915524497763	-0.5484460325189386	0.0	1.4099184215630556	-0.57414149836297	0.0	1.2019937735165118	-0.53979201760676	0.0	1.1795807466149721	-0.44728044963207225	0.0	1.2635767737391301	-0.3541628330119967	0.0	1.262286668799458	-0.29180019830750203	0.0	1.2541559522727814	-0.2947880704800406	0.0	1.2786946838448217	-0.36018942266061493	0.0	1.0801084732983715	-0.5218316203620049	0.0	1.0313622984881319	-0.4611913885651751	0.0	1.0830263595851022	-0.47010719041284343	0.0	1.0885646840675207	-0.5375089367234966	0.0	1.2029373820000087	-0.5209216444009116	0.0	1.250701568187512	-0.4714768759905045	0.0	1.0910851566433364	-0.5225045131733901	0.0	1.166997759908821	-0.5024314526118958	0.0	1.2050065733525057	-0.46898785045197006	0.0
164	5.496539162112933	1.230015292903027	-0.5575205716243864	0.0	1.2478173930020358	-0.5661888325849627	0.0	1.3285493765048375	-0.48238991490268485	0.0	1.4250923781545906	-0.5826468202190364	0.0	1.4828986623435414	-0.5680769791689414	0.0	1.480397849659739	-0.5814679043410849	0.0	1.4217792742178619	-0.600195505922564	0.0	1.2146530735196817	-0.5438589285510351	0.0	1.195141299275434	-0.44774477804964136	0.0	1.2888573158121757	-0.3617748036856127	0.0	1.2963192836480073	-0.3011572861871672	0.0	1.2874593392308469	-0.3039259692793633	0.0	1.3043652411733093	-0.36805648892176873	0.0	1.0886314158535042	-0.5151628408121073	0.0	1.0455951731498094	-0.45117520677227535	0.0	1.0979158251913936	-0.46369525424935193	0.0	1.0968095550076962	-0.5313877238619663	0.0	1.2128826119829221	-0.5225207545120635	0.0	1.273640202607232	-0.47749660647453773	0.0	1.1014004158287733	-0.5172990088091107	0.0	1.182224966373553	-0.505751390759778	0.0	1.2244844507720947	-0.47469695289340424	0.0
165	5.530054644808744	1.2373148955936621	-0.5637687199219527	0.0	1.2554130591410477	-0.5741890580481214	0.0	1.3504124068037617	-0.5026424740250974	0.0	1.437437313189746	-0.6113085288912662	0.0	1.496337512772234	-0.6022345180745085	0.0	1.4920725154017491	-0.615087753675891	0.0	1.4329752130794324	-0.6280280038631283	0.0	1.2273852971830537	-0.5483565896091558	0.0	1.2133319556928348	-0.4487616409650204	0.0	1.3164509426123205	-0.371146284356256	0.0	1.3306037588194992	-0.3137151134177351	0.0	1.3223694117226499	-0.31543285822779016	0.0	1.332644573317788	-0.3776761415506047	0.0	1.0995266758749564	-0.5069542411658176	0.0	1.0614124541540793	-0.44014366108878794	0.0	1.1141372655789035	-0.4560471809620532	0.0	1.1082190784592623	-0.5236858616053036	0.0	1.224507065048647	-0.5235939041775376	0.0	1.2955247838116994	-0.48466835942503295	0.0	1.1125675221204578	-0.5119345310496203	0.0	1.198008825174153	-0.5091795494872193	0.0	1.2444537840730974	-0.4805496888292652	0.0
166	5.563570127504554	1.2445721024192278	-0.5704069905918049	0.0	1.2625311803957044	-0.5822778992641572	0.0	1.3704293974853965	-0.5255861506025998	0.0	1.4476580114623627	-0.6414238931299855	0.0	1.5071989543216378	-0.6367148423123551	0.0	1.5015855401890383	-0.6491428531980771	0.0	1.442696221963093	-0.6576014978732392	0.0	1.2397042344578633	-0.5533339198711601	0.0	1.2346050933834365	-0.4515203705825754	0.0	1.346562594208741	-0.38377802954982293	0.0	1.3650055481118064	-0.3302452483575969	0.0	1.3586567920408446	-0.3301985352161622	0.0	1.3636407567927802	-0.39060970703100234	0.0	1.113812627183723	-0.49725044929281836	0.0	1.0791082846035958	-0.42817778648007043	0.0	1.1318763104022171	-0.44696738031787775	0.0	1.1240111720707413	-0.5144293148011124	0.0	1.2385540000496194	-0.5238331451010105	0.0	1.3167344862428374	-0.49249911370900856	0.0	1.1251062161466856	-0.5058726531794162	0.0	1.213967317289448	-0.5114021096793744	0.0	1.265200873802147	-0.4845913892520679	0.0
167	5.597085610200365	1.2522716515389662	-0.576998858790766	0.0	1.2694140862194625	-0.5897440401063787	0.0	1.388364934184337	-0.5505249236477853	0.0	1.4551754753943131	-0.6726017388176643	0.0	1.514949189343143	-0.6715920265992585	0.0	1.5083637336678652	-0.6836161361598696	0.0	1.449928053942553	-0.6886649485537999	0.0	1.2518293547362902	-0.5589598206126645	0.0	1.259519972998702	-0.45723367029545187	0.0	1.3793114516096439	-0.40208915934183503	0.0	1.4007478613085953	-0.35253214184023224	0.0	1.3965689489343716	-0.35045518340571613	0.0	1.3971195635933538	-0.409445897605066	0.0	1.132569271493908	-0.48627967025566704	0.0	1.0995630218364447	-0.41524357621634617	0.0	1.1521716109292357	-0.43631203029004406	0.0	1.1454047987561173	-0.5037487249198583	0.0	1.2561856325716336	-0.5229279062831149	0.0	1.3384726731834231	-0.4997368363788943	0.0	1.1400076061003244	-0.4985026680633462	0.0	1.230080749245479	-0.5104400895861522	0.0	1.2859993130397172	-0.4842393476648016	0.0
